# xmcd
# Copyright (c) 1998 CDDB Inc.
#
# Track frame offsets:
#	182
#	9890
#	27260
#	38012
#	58195
#	82870
#	104150
#	129357
#	149407
#	166820
#	184000
#	203437
#	217492
#	233532
#	255252
#	271320
#
# Disc length: 3869 seconds
#
# Revision: 1
# Processed by: cddbd v1.4b41PL2 Copyright (c) Steve Scherf et al.
# Submitted via: audiograbber 1.70
#
DISCID=d10f1b10
DTITLE=diverse Interpreten - Salsa Grooves
DYEAR=1900
DGENRE=
TTITLE0=Perez Prado - Mambo No. 5
TTITLE1=Ibrahim Ferrer - La Chica Del Granizado
TTITLE2=Company Secundo - Te Apartas De Mi
TTITLE3=Tito Puente - Oye Como Va
TTITLE4=Fania All Stars - Bamboleo
TTITLE5=Ruben Blades - La Maleta
TTITLE6=Willie Colon - Juan Pena
TTITLE7=Ray Barretto - Quitate La Mascera
TTITLE8=Ruben Gonzales - Fabiando
TTITLE9=Eliades Ochoa - Que Lio Compay Andres
TTITLE10=Angel Canales - Sabor Los Rumberos Nuevos
TTITLE11=Raul Planas - Rumberos Del Ayer
TTITLE12=Omara Portuondo - Muncho Corazon
TTITLE13=Oelia Cruz - Quimbara
TTITLE14=Suco E Sol - Ylarie (Airplay)
TTITLE15=Megano - Bailando Salsa
EXTD=
EXTT0=
EXTT1=
EXTT2=
EXTT3=
EXTT4=
EXTT5=
EXTT6=
EXTT7=
EXTT8=
EXTT9=
EXTT10=
EXTT11=
EXTT12=
EXTT13=
EXTT14=
EXTT15=
PLAYORDER=
